<svg width="52" height="52" viewBox="0 0 52 52" fill="none" xmlns="http://www.w3.org/2000/svg">
<rect width="52" height="52" rx="26" fill="#E9262D"/>
<path d="M26 17.5385C28.6579 17.5385 31.0329 18.7361 32.6028 20.6154H34.5252C32.7277 17.8398 29.5812 16 26 16C20.5196 16 16.0572 20.3085 15.8895 25.6861L14.1004 23.9175L13 25.0054L16.6626 28.6262L20.3253 25.0054L19.2249 23.9175L17.447 25.6751C17.6197 21.1525 21.3829 17.5385 26 17.5385Z" fill="white"/>
<path d="M19.3975 31.3846H17.475C19.2725 34.1602 22.4191 36 26.0002 36C31.4805 36 35.9429 31.6916 36.1108 26.3141L37.8996 28.0825L39 26.9946L35.3374 23.3738L31.6747 26.9946L32.7751 28.0825L34.5532 26.3247C34.3807 30.8474 30.6174 34.4615 26.0002 34.4615C23.3423 34.4615 20.9674 33.2639 19.3975 31.3846Z" fill="white"/>
</svg>
